<svg version="1.1" id="Layer_1" xmlns="http://www.w3.org/2000/svg" xmlns:xlink="http://www.w3.org/1999/xlink" x="0px" y="0px"
	 width="100%" viewBox="0 0 2244 630" enable-background="new 0 0 2244 630" xml:space="preserve">
<path fill="none" opacity="1.000000" stroke="#000000" stroke-linecap="round" stroke-linejoin="round" stroke-width="2.000000"
	d="
M1238.500000,83.500000 
	C1238.500000,118.166664 1238.500000,152.833328 1238.500000,187.500000 
"/>
<path fill="none" opacity="1.000000" stroke="#000000" stroke-linecap="round" stroke-linejoin="round" stroke-width="2.000000"
	d="
M1248.500000,83.500000 
	C1248.500000,118.166664 1248.500000,152.833328 1248.500000,187.500000 
"/>
<path fill="none" opacity="1.000000" stroke="#000000" stroke-linecap="round" stroke-linejoin="round" stroke-width="2.000000"
	d="
M1012.500000,91.500000 
	C1004.777100,87.125679 997.725891,81.737358 989.062500,78.814758 
	C979.823914,75.698120 970.414673,75.295090 960.997742,75.174896 
	C954.340759,75.089935 947.588440,75.921371 940.991516,77.463600 
	C933.570312,79.198532 926.928589,82.578094 920.500000,86.500000 
"/>
<path fill="none" opacity="1.000000" stroke="#000000" stroke-linecap="round" stroke-linejoin="round" stroke-width="2.000000"
	d="
M1038.500000,125.500000 
	C1044.664307,140.344452 1046.110352,155.759705 1043.392334,171.481384 
	C1042.392822,177.263382 1040.166626,182.833328 1038.500000,188.499985 
"/>
<path fill="none" opacity="1.000000" stroke="#000000" stroke-linecap="round" stroke-linejoin="round" stroke-width="2.000000"
	d="
M886.500000,126.500000 
	C880.869568,142.141907 879.714783,158.156784 882.500000,174.500000 
"/>
<path fill="none" opacity="1.000000" stroke="#000000" stroke-linecap="round" stroke-linejoin="round" stroke-width="2.000000"
	d="
M1337.500000,126.500000 
	C1337.500000,139.500000 1337.500000,152.500000 1337.500000,165.500000 
"/>
<path fill="none" opacity="1.000000" stroke="#000000" stroke-linecap="round" stroke-linejoin="round" stroke-width="2.000000"
	d="
M1345.500000,128.500000 
	C1345.500000,140.166672 1345.500000,151.833328 1345.500000,163.500000 
"/>
<path fill="none" opacity="1.000000" stroke="#000000" stroke-linecap="round" stroke-linejoin="round" stroke-width="2.000000"
	d="
M910.500000,93.500000 
	C901.984497,101.425919 894.202087,109.927391 888.940308,120.470207 
	C888.575439,121.201202 888.600708,121.816841 888.500000,122.500000 
"/>
<path fill="none" opacity="1.000000" stroke="#000000" stroke-linecap="round" stroke-linejoin="round" stroke-width="2.000000"
	d="
M1019.500000,97.500000 
	C1024.792358,104.069267 1031.365845,109.633911 1035.063721,117.469955 
	C1035.407471,118.198441 1035.399292,118.816841 1035.500000,119.500000 
"/>
<path fill="none" opacity="1.000000" stroke="#000000" stroke-linecap="round" stroke-linejoin="round" stroke-width="2.000000"
	d="
M888.500000,192.500000 
	C890.590454,198.045731 893.846130,202.892334 897.500000,207.500000 
"/>
</svg>